<?xml version="1.0" standalone="no"?>
<!DOCTYPE svg PUBLIC "-//W3C//DTD SVG 20010904//EN"
 "http://www.w3.org/TR/2001/REC-SVG-20010904/DTD/svg10.dtd">
<svg version="1.0" xmlns="http://www.w3.org/2000/svg"
 width="298.000000pt" height="298.000000pt" viewBox="0 0 298.000000 298.000000"
 preserveAspectRatio="xMidYMid meet">
<metadata>
Created by potrace 1.14, written by Peter Selinger 2001-2017
</metadata>
<g transform="translate(0.000000,298.000000) scale(0.100000,-0.100000)"
fill="#000000" stroke="none">
<path d="M550 2868 c-27 -19 -41 -45 -83 -151 -27 -71 -53 -125 -57 -120 -3 4
-26 61 -50 126 -37 99 -48 120 -75 137 -79 49 -185 -4 -185 -91 0 -17 41 -128
92 -248 l91 -216 3 -100 c1 -55 7 -112 13 -127 34 -90 191 -85 220 7 5 17 9
68 9 115 l-1 85 103 225 c112 243 123 288 85 330 -48 53 -112 64 -165 28z"/>
<path d="M2481 2870 c-77 -28 -132 -77 -161 -143 -23 -51 -28 -109 -35 -397
-4 -118 -8 -269 -10 -335 -2 -66 -7 -228 -11 -360 -3 -132 -8 -271 -9 -310 -9
-222 -6 -362 8 -403 42 -120 149 -194 282 -193 134 1 234 63 280 175 11 25 18
78 20 150 4 124 13 401 20 666 3 96 8 245 10 330 13 404 14 597 4 636 -6 22
-27 63 -48 90 -75 100 -225 140 -350 94z"/>
<path d="M1027 2864 c-95 -22 -162 -79 -208 -179 -92 -196 -43 -504 98 -611
95 -72 245 -86 354 -32 127 63 197 200 203 395 8 259 -119 427 -332 437 -31 2
-83 -3 -115 -10z m158 -239 c100 -105 56 -385 -61 -385 -71 0 -117 84 -115
211 2 172 94 262 176 174z"/>
<path d="M2004 2869 c-16 -5 -41 -20 -55 -35 -24 -26 -24 -26 -25 -252 0 -240
-8 -297 -45 -331 -22 -21 -55 -20 -75 1 -19 21 -34 79 -41 158 -7 71 -7 120
-3 302 2 86 -8 111 -53 138 -75 46 -166 8 -182 -77 -6 -34 -6 -299 1 -368 15
-160 62 -288 129 -349 71 -66 220 -80 319 -32 85 42 142 124 170 244 19 81 22
507 4 541 -27 50 -88 76 -144 60z"/>
<path d="M385 1911 c-79 -20 -159 -80 -208 -154 -139 -210 -103 -520 76 -653
69 -51 119 -67 203 -66 135 3 250 72 259 156 18 163 22 274 12 300 -9 22 -79
53 -142 60 -27 4 -64 9 -80 12 -64 11 -115 -36 -115 -106 0 -59 48 -120 95
-120 18 0 20 -5 17 -35 -2 -20 -10 -36 -18 -36 -8 -1 -20 -2 -26 -3 -30 -4
-69 18 -90 52 -45 73 -30 269 26 336 37 43 58 41 117 -10 51 -43 57 -45 102
-41 84 7 137 85 107 157 -17 40 -92 107 -148 132 -50 22 -140 32 -187 19z"/>
<path d="M1168 1905 c-2 -1 -26 -5 -54 -8 -150 -15 -254 -119 -289 -287 -39
-187 5 -387 107 -489 124 -125 348 -119 472 13 70 74 115 227 110 373 -6 166
-65 284 -175 351 -30 18 -162 55 -171 47z m23 -224 c17 -3 49 -41 64 -76 21
-48 28 -174 14 -232 -13 -50 -55 -102 -89 -108 -33 -7 -75 11 -94 39 -58 89
-48 280 18 350 28 31 46 36 87 27z"/>
<path d="M1591 1882 c-57 -27 -77 -111 -41 -169 26 -43 53 -55 120 -57 l57 -1
-1 -267 c-1 -255 0 -268 20 -295 25 -34 90 -59 127 -49 15 3 41 19 59 35 l32
28 2 249 c1 137 3 261 3 275 1 26 4 27 57 28 64 0 96 17 120 62 17 33 15 90
-4 125 -25 47 -62 53 -300 52 -169 -1 -229 -5 -251 -16z"/>
<path d="M1803 879 c-107 -42 -165 -135 -156 -249 8 -102 40 -138 201 -225 41
-22 81 -50 89 -62 13 -19 12 -24 -6 -42 -27 -27 -58 -21 -126 25 -67 46 -115
46 -156 3 -16 -17 -30 -40 -30 -50 -1 -10 -2 -25 -3 -31 -3 -19 24 -70 48 -92
48 -42 107 -60 206 -60 80 -1 104 3 148 23 111 50 165 165 132 281 -16 57 -82
119 -206 193 -78 47 -89 59 -74 86 15 28 51 27 96 -4 80 -55 184 -7 184 85 0
40 -38 84 -100 116 -55 28 -182 29 -247 3z"/>
<path d="M162 879 c-58 -17 -88 -93 -60 -153 18 -40 54 -58 114 -57 44 0 54
-3 54 -17 1 -9 0 -117 0 -239 -1 -248 5 -273 63 -298 33 -14 54 -12 100 6 53
22 57 45 57 309 l0 240 58 0 c52 0 61 3 88 31 24 25 29 39 29 79 0 41 -5 55
-28 77 l-27 28 -208 2 c-114 1 -222 -3 -240 -8z"/>
<path d="M1123 880 c-28 -11 -55 -53 -59 -88 -1 -15 -2 -62 -3 -104 l-1 -78
-65 0 -65 0 0 101 c0 111 -7 132 -50 154 -45 23 -91 19 -127 -12 -41 -36 -42
-45 -43 -333 -2 -376 -4 -345 28 -381 35 -40 93 -47 141 -18 41 25 53 58 51
149 -3 131 -9 120 64 120 l63 0 2 -105 c1 -115 11 -143 57 -163 59 -28 140 5
156 63 10 39 16 584 6 622 -16 60 -96 98 -155 73z"/>
<path d="M1399 865 c-48 -26 -52 -48 -54 -370 -2 -173 1 -310 7 -325 22 -59
90 -84 151 -55 58 27 59 32 61 385 l1 322 -33 29 c-36 33 -88 38 -133 14z"/>
<path d="M2486 649 c-145 -33 -249 -146 -248 -270 1 -109 77 -230 170 -271 73
-33 190 -16 273 39 106 69 160 248 110 358 -49 109 -182 171 -305 144z"/>
</g>
</svg>
