<?xml version="1.0" encoding="UTF-8"?>
<svg width="750px" height="91px" viewBox="0 0 750 91" version="1.1" xmlns="http://www.w3.org/2000/svg" xmlns:xlink="http://www.w3.org/1999/xlink">
    <title>YOUGOTTHIS!</title>
    <g id="Page-1" stroke="none" stroke-width="1" fill="none" fill-rule="evenodd">
        <g id="You-Got-This-2022-Brand-White" transform="translate(-45.000000, -60.000000)" fill="#FFFFFF" fill-rule="nonzero">
            <path d="M76.52,149.08 C79.88,149.08 82.76,148 85.16,145.84 C87.56,143.68 88.72,140.68 88.64,136.84 L88.64,136.84 L88.52,121.48 L108.44,78.16 C109.24,76.32 109.64,74.52 109.64,72.76 C109.64,69.48 108.36,66.72 105.8,64.48 C103.24,62.24 100.32,61.12 97.04,61.12 C94.88,61.12 92.88,61.7 91.04,62.86 C89.2,64.02 87.72,65.76 86.6,68.08 L86.6,68.08 L77.24,92.2 L68.72,69.28 C67.76,66.8 66.34,64.96 64.46,63.76 C62.58,62.56 60.48,61.96 58.16,61.96 C54.88,61.96 51.96,63.06 49.4,65.26 C46.84,67.46 45.56,70.24 45.56,73.6 C45.56,75.12 45.92,76.8 46.64,78.64 L46.64,78.64 L64.16,119.44 L64.64,137.44 C64.72,141.12 65.92,143.98 68.24,146.02 C70.56,148.06 73.32,149.08 76.52,149.08 Z M147.556177,149.3224 L148.16,149.32 C155.68,149.32 162.1,147.4 167.42,143.56 C172.74,139.72 176.76,134.38 179.48,127.54 C182.2,120.7 183.56,112.84 183.56,103.96 C183.56,95.8 182.2,88.6 179.48,82.36 C176.76,76.12 172.74,71.24 167.42,67.72 C162.1,64.2 155.72,62.44 148.28,62.44 C140.6,62.44 134.12,64.24 128.84,67.84 C123.56,71.44 119.6,76.44 116.96,82.84 C114.32,89.24 113,96.6 113,104.92 C113,113.32 114.3,120.88 116.9,127.6 C119.5,134.32 123.44,139.64 128.72,143.56 C134,147.48 140.48,149.4 148.16,149.32 L147.556177,149.3224 Z M148.04,126.28 C144.44,126.36 141.64,124.36 139.64,120.28 C137.64,116.2 136.64,111.28 136.64,105.52 C136.64,99.76 137.66,94.74 139.7,90.46 C141.74,86.18 144.56,84 148.16,83.92 C151.92,84.08 154.84,86.34 156.92,90.7 C159,95.06 160.04,100.16 160.04,106 C160.04,111.52 158.98,116.28 156.86,120.28 C154.74,124.28 151.8,126.28 148.04,126.28 Z M219.44,150.64 C230.4,150.64 238.54,146.76 243.86,139 C249.18,131.24 251.92,121.08 252.08,108.52 L252.08,108.52 L252.08,74.92 C252.16,71.08 251,68.08 248.6,65.92 C246.2,63.76 243.32,62.68 239.96,62.68 C236.76,62.68 234,63.7 231.68,65.74 C229.36,67.78 228.16,70.6 228.08,74.2 C228,77.32 228.08,81.68 228.32,87.28 C228.4,88.72 228.48,90.9 228.56,93.82 C228.64,96.74 228.68,99.24 228.68,101.32 C228.68,109.08 228.06,115.24 226.82,119.8 C225.58,124.36 223.24,126.64 219.8,126.64 C214.36,126.64 211.64,116.08 211.64,94.96 C211.64,90 211.74,85.58 211.94,81.7 C212.14,77.82 212.24,75.64 212.24,75.16 C212.32,71.32 211.16,68.34 208.76,66.22 C206.36,64.1 203.52,63.04 200.24,63.04 C197.04,63.04 194.26,64.08 191.9,66.16 C189.54,68.24 188.32,71.12 188.24,74.8 L188.24,74.8 L188.239082,74.9062245 C188.231122,75.4554082 188.171429,77.16 188.06,80.02 C187.94,83.1 187.88,86.8 187.88,91.12 C187.88,98.64 188.12,105.04 188.6,110.32 C189.72,122.8 192.68,132.64 197.48,139.84 C202.28,147.04 209.6,150.64 219.44,150.64 Z M334.04,148.72 C338.52,148.72 342.84,148.02 347,146.62 C351.16,145.22 354.54,143.22 357.14,140.62 C359.74,138.02 361.08,135.08 361.16,131.8 C361.56,123.88 362.16,117.16 362.96,111.64 C363.12,110.2 363.2,109.2 363.2,108.64 C363.2,105.6 362.44,103.3 360.92,101.74 C359.4,100.18 357.38,99.08 354.86,98.44 C352.34,97.8 348.6,97.16 343.64,96.52 C342.76,96.44 341.16,96.24 338.84,95.92 L338.84,95.92 L337.4,95.8 C334.52,95.8 332.28,96.82 330.68,98.86 C329.08,100.9 328.28,103.4 328.28,106.36 C328.28,109.64 329.32,112.54 331.4,115.06 C333.48,117.58 336.36,118.84 340.04,118.84 L340.04,118.84 L339.32,124.96 C337.48,125.68 335.84,126.04 334.4,126.04 C330.72,126.04 327.94,124.24 326.06,120.64 C324.18,117.04 323.24,112.56 323.24,107.2 C323.24,103.44 323.7,99.76 324.62,96.16 C325.54,92.56 326.82,89.62 328.46,87.34 C330.1,85.06 331.92,83.92 333.92,83.92 C336.16,83.92 338.48,85.4 340.88,88.36 C343.36,91.32 346.32,92.8 349.76,92.8 C353.04,92.8 355.96,91.58 358.52,89.14 C361.08,86.7 362.36,83.84 362.36,80.56 C362.36,78 361.36,75.48 359.36,73 C356,69 352.2,65.96 347.96,63.88 C343.72,61.8 339.36,60.76 334.88,60.76 C329.04,60.76 323.48,62.44 318.2,65.8 C311.88,69.8 307,75.44 303.56,82.72 C300.12,90 298.4,97.76 298.4,106 C298.4,114.32 300.16,122 303.68,129.04 C307.2,136.08 312.32,141.44 319.04,145.12 C323.2,147.52 328.2,148.72 334.04,148.72 Z M402.196177,149.3224 L402.8,149.32 C410.32,149.32 416.74,147.4 422.06,143.56 C427.38,139.72 431.4,134.38 434.12,127.54 C436.84,120.7 438.2,112.84 438.2,103.96 C438.2,95.8 436.84,88.6 434.12,82.36 C431.4,76.12 427.38,71.24 422.06,67.72 C416.74,64.2 410.36,62.44 402.92,62.44 C395.24,62.44 388.76,64.24 383.48,67.84 C378.2,71.44 374.24,76.44 371.6,82.84 C368.96,89.24 367.64,96.6 367.64,104.92 C367.64,113.32 368.94,120.88 371.54,127.6 C374.14,134.32 378.08,139.64 383.36,143.56 C388.64,147.48 395.12,149.4 402.8,149.32 L402.196177,149.3224 Z M402.68,126.28 C399.08,126.36 396.28,124.36 394.28,120.28 C392.28,116.2 391.28,111.28 391.28,105.52 C391.28,99.76 392.3,94.74 394.34,90.46 C396.38,86.18 399.2,84 402.8,83.92 C406.56,84.08 409.48,86.34 411.56,90.7 C413.64,95.06 414.68,100.16 414.68,106 C414.68,111.52 413.62,116.28 411.5,120.28 C409.38,124.28 406.44,126.28 402.68,126.28 Z M468.32,148.24 C471.6,148.24 474.42,147.2 476.78,145.12 C479.14,143.04 480.32,140.16 480.32,136.48 L480.32,136.48 L480.32,124.84 C480.32,113 480.44,100.32 480.68,86.8 L480.68,86.8 L488.12,86.8 C491.8,86.8 494.68,85.62 496.76,83.26 C498.84,80.9 499.88,78.08 499.88,74.8 C499.88,71.52 498.84,68.7 496.76,66.34 C494.68,63.98 491.76,62.8 488,62.8 L488,62.8 L448.64,62.92 C444.88,63 441.96,64.22 439.88,66.58 C437.8,68.94 436.76,71.72 436.76,74.92 C436.76,78.2 437.82,81.04 439.94,83.44 C442.06,85.84 444.96,87 448.64,86.92 L448.64,86.92 L456.68,86.92 C456.44,100.44 456.32,113.16 456.32,125.08 L456.32,125.08 L456.32,136.6 C456.4,140.28 457.62,143.14 459.98,145.18 C462.34,147.22 465.12,148.24 468.32,148.24 Z M573.44,148.24 C576.72,148.24 579.54,147.2 581.9,145.12 C584.26,143.04 585.44,140.16 585.44,136.48 L585.44,136.48 L585.44,124.84 C585.44,113 585.56,100.32 585.8,86.8 L585.8,86.8 L593.24,86.8 C596.92,86.8 599.8,85.62 601.88,83.26 C603.96,80.9 605,78.08 605,74.8 C605,71.52 603.96,68.7 601.88,66.34 C599.8,63.98 596.88,62.8 593.12,62.8 L593.12,62.8 L553.76,62.92 C550,63 547.08,64.22 545,66.58 C542.92,68.94 541.88,71.72 541.88,74.92 C541.88,78.2 542.94,81.04 545.06,83.44 C547.18,85.84 550.08,87 553.76,86.92 L553.76,86.92 L561.8,86.92 C561.56,100.44 561.44,113.16 561.44,125.08 L561.44,125.08 L561.44,136.6 C561.52,140.28 562.74,143.14 565.1,145.18 C567.46,147.22 570.24,148.24 573.44,148.24 Z M620.48,148.72 C623.76,148.72 626.56,147.66 628.88,145.54 C631.2,143.42 632.36,140.48 632.36,136.72 L632.36,136.72 L632.24,117.16 L646.4,117.04 L646.52,136.24 C646.52,139.84 647.7,142.68 650.06,144.76 C652.42,146.84 655.2,147.88 658.4,147.88 C661.6,147.88 664.4,146.82 666.8,144.7 C669.2,142.58 670.44,139.64 670.52,135.88 C670.92,120.52 671.12,106.72 671.12,94.48 L671.119167,92.3458333 C671.113056,84.6886111 671.073333,78.88 671,74.92 C670.92,71.08 669.68,68.08 667.28,65.92 C664.88,63.76 662.04,62.68 658.76,62.68 C655.56,62.68 652.82,63.7 650.54,65.74 C648.26,67.78 647.08,70.64 647,74.32 L647,74.32 L646.64,93.04 L632.48,93.16 L632.84,75.76 C632.92,71.92 631.78,68.92 629.42,66.76 C627.06,64.6 624.24,63.52 620.96,63.52 C617.76,63.52 614.96,64.54 612.56,66.58 C610.16,68.62 608.92,71.48 608.84,75.16 C608.44,90.76 608.24,104.76 608.24,117.16 C608.24,117.404444 608.24,117.647191 608.24,117.888241 L608.240833,119.314167 C608.246944,127.044722 608.286667,132.926667 608.36,136.96 C608.44,140.64 609.68,143.52 612.08,145.6 C614.48,147.68 617.28,148.72 620.48,148.72 Z M688.76,148.72 C691.96,148.72 694.74,147.66 697.1,145.54 C699.46,143.42 700.64,140.48 700.64,136.72 C700.566857,133.136 700.527151,127.779853 700.520882,120.651559 L700.520098,119.294237 L700.520098,119.294237 L700.52,118.6 C700.52,106.84 700.72,92.56 701.12,75.76 C701.2,71.92 700.04,68.92 697.64,66.76 C695.24,64.6 692.4,63.52 689.12,63.52 C685.84,63.52 683.04,64.54 680.72,66.58 C678.4,68.62 677.2,71.48 677.12,75.16 C676.72,92.2 676.52,106.68 676.52,118.6 C676.52,118.831111 676.52,119.060525 676.52,119.288241 L676.520833,120.634167 C676.526944,127.924722 676.566667,133.366667 676.64,136.96 C676.64,140.64 677.84,143.52 680.24,145.6 C682.64,147.68 685.48,148.72 688.76,148.72 Z M733.52,150.04 C738.56,150.04 743.3,149.2 747.74,147.52 C752.18,145.84 755.92,143.28 758.96,139.84 C762,136.4 763.84,132.16 764.48,127.12 C764.64,126.16 764.72,124.8 764.72,123.04 C764.72,117.44 763.06,112.76 759.74,109 C756.42,105.24 751.24,101.24 744.2,97 L744.2,97 L741.68,95.56 C738.08,93.4 735.62,91.8 734.3,90.76 C732.98,89.72 732.32,88.6 732.32,87.4 C732.32,86.76 732.48,86.16 732.8,85.6 C733.68,83.92 735.08,83.08 737,83.08 C737.96,83.08 738.94,83.3 739.94,83.74 C740.94,84.18 741.84,84.76 742.64,85.48 C745.2,87.8 748.08,88.96 751.28,88.96 C754.64,88.96 757.58,87.76 760.1,85.36 C762.62,82.96 763.88,80.2 763.88,77.08 C763.88,74.04 762.6,71.36 760.04,69.04 C757.32,66.48 754.08,64.54 750.32,63.22 C746.56,61.9 742.64,61.24 738.56,61.24 C733.36,61.24 728.46,62.3 723.86,64.42 C719.26,66.54 715.54,69.66 712.7,73.78 C709.86,77.9 708.44,82.8 708.44,88.48 C708.44,93.12 709.22,97 710.78,100.12 C712.34,103.24 714.6,105.88 717.56,108.04 C720.52,110.2 724.52,112.48 729.56,114.88 C733.48,116.8 736.4,118.46 738.32,119.86 C740.24,121.26 741.2,122.76 741.2,124.36 C741.2,124.76 741.08,125.28 740.84,125.92 C740.04,127.92 738.44,128.92 736.04,128.92 C734.52,128.92 732.84,128.5 731,127.66 C729.16,126.82 727.44,125.68 725.84,124.24 C723.04,121.52 720,120.16 716.72,120.16 C713.6,120.16 710.92,121.38 708.68,123.82 C706.44,126.26 705.32,129.12 705.32,132.4 C705.32,134.64 705.96,136.82 707.24,138.94 C708.52,141.06 710.48,142.96 713.12,144.64 C715.92,146.4 719.08,147.74 722.6,148.66 C726.12,149.58 729.76,150.04 733.52,150.04 Z M782.36,116.32 C785.56,116.32 788.34,115.28 790.7,113.2 C793.06,111.12 794.24,108.28 794.24,104.68 L794.24,104.68 L794.72,74.2 C794.72,70.44 793.54,67.5 791.18,65.38 C788.82,63.26 786,62.2 782.72,62.2 C779.44,62.2 776.62,63.24 774.26,65.32 C771.9,67.4 770.72,70.28 770.72,73.96 L770.72,73.96 L770.24,104.32 C770.24,108.08 771.44,111.02 773.84,113.14 C776.24,115.26 779.08,116.32 782.36,116.32 Z M781.16,148.24 C783.32,148.24 785.48,147.68 787.64,146.56 C789.48,145.6 790.98,144.1 792.14,142.06 C793.3,140.02 793.88,137.88 793.88,135.64 C793.88,133.56 793.44,131.88 792.56,130.6 C791.6,129 790.3,127.76 788.66,126.88 C787.02,126 785.24,125.56 783.32,125.56 C781.08,125.56 778.96,126.12 776.96,127.24 C774.96,128.36 773.42,129.72 772.34,131.32 C771.26,132.92 770.72,134.68 770.72,136.6 C770.72,138.28 771.12,139.92 771.92,141.52 C774.08,146 777.16,148.24 781.16,148.24 Z" id="YOUGOTTHIS!"></path>
        </g>
    </g>
</svg>