<?xml version="1.0" encoding="UTF-8"?>
<svg width="372px" height="372px" viewBox="0 0 372 372" version="1.1" xmlns="http://www.w3.org/2000/svg" xmlns:xlink="http://www.w3.org/1999/xlink">
    <title>Group</title>
    <g id="Page-1" stroke="none" stroke-width="1" fill="none" fill-rule="evenodd">
        <g id="You-Got-This-2022-Brand-Color" transform="translate(-924.000000, -61.000000)" fill="#EA194A" fill-rule="nonzero">
            <g id="Group" transform="translate(924.000000, 61.000000)">
                <path d="M42.0753486,116.926273 C46.5331384,116.926273 50.3541011,115.490617 53.5382366,112.619303 C56.7223722,109.747989 58.261371,105.760054 58.1552332,100.655496 L58.1552332,100.655496 L57.9960264,80.2372654 L84.4243515,22.6514745 C85.48573,20.2055407 86.0164193,17.8127793 86.0164193,15.4731903 C86.0164193,11.1130474 84.3182136,7.44414656 80.9218024,4.46648794 C77.5253911,1.48882931 73.6513595,0 69.2997076,0 C66.4339856,0 63.7805393,0.771000894 61.3393687,2.31300268 C58.8981981,3.85500447 56.9346479,6.16800715 55.4487179,9.25201072 L55.4487179,9.25201072 L43.0305893,41.3150134 L31.7269081,10.847185 C30.4532539,7.55049151 28.569307,5.10455764 26.0750675,3.50938338 C23.580828,1.91420912 20.7947094,1.11662198 17.7167117,1.11662198 C13.3650597,1.11662198 9.49102814,2.57886506 6.09461688,5.50335121 C2.69820563,8.42783735 1,12.1233244 1,16.5898123 C1,18.6103664 1.47762033,20.8436104 2.432861,23.2895442 L2.432861,23.2895442 L25.6770505,77.5254692 L26.3138776,101.453083 C26.4200155,106.344951 28.0120833,110.146783 31.090081,112.858579 C34.1680787,115.570375 37.8298346,116.926273 42.0753486,116.926273 Z M136.320689,117.248499 L137.121795,117.245308 C147.098753,117.245308 155.616316,114.693029 162.674483,109.588472 C169.73265,104.483914 175.066077,97.3853887 178.674764,88.2928954 C182.283451,79.2004021 184.087794,68.7520107 184.087794,56.9477212 C184.087794,46.1005362 182.283451,36.5294906 178.674764,28.2345845 C175.066077,19.9396783 169.73265,13.4526363 162.674483,8.77345845 C155.616316,4.09428061 147.151822,1.75469169 137.281002,1.75469169 C127.091768,1.75469169 118.494602,4.14745308 111.489504,8.93297587 C104.484405,13.7184987 99.2305818,20.3650581 95.7280327,28.8726542 C92.2254836,37.3802502 90.474209,47.1639857 90.474209,58.2238606 C90.474209,69.3900804 92.1989491,79.4396783 95.6484293,88.3726542 C99.0979095,97.30563 104.325199,104.377569 111.330297,109.588472 C118.335395,114.799374 126.932561,117.351653 137.121795,117.245308 L136.320689,117.248499 Z M136.962588,86.6179625 C132.186385,86.7243074 128.47156,84.0656836 125.818114,78.6420912 C123.164667,73.2184987 121.837944,66.6782842 121.837944,59.0214477 C121.837944,51.3646113 123.191202,44.6914656 125.897717,39.0020107 C128.604232,33.3125559 132.345592,30.4146559 137.121795,30.308311 C142.110274,30.5210009 145.984305,33.5252458 148.74389,39.3210456 C151.503474,45.1168454 152.883266,51.896336 152.883266,59.6595174 C152.883266,66.997319 151.476939,73.3248436 148.664286,78.6420912 C145.851633,83.9593387 141.951067,86.6179625 136.962588,86.6179625 Z M231.690621,119 C246.231506,119 257.031033,113.84227 264.0892,103.52681 C271.147367,93.2113494 274.782589,79.7055407 274.994864,63.0093834 L274.994864,63.0093834 L274.994864,18.344504 C275.101002,13.2399464 273.562003,9.25201072 270.377868,6.38069705 C267.193732,3.50938338 263.37277,2.07372654 258.91498,2.07372654 C254.669466,2.07372654 251.00771,3.42962466 247.929712,6.14142091 C244.851714,8.85321716 243.259647,12.6018767 243.153509,17.3873995 C243.047371,21.5348525 243.153509,27.3306524 243.471922,34.7747989 C243.57806,36.689008 243.684198,39.586908 243.790336,43.4684987 C243.896474,47.3500894 243.949543,50.6733691 243.949543,53.4383378 C243.949543,63.753798 243.126974,71.9423592 241.481838,78.0040214 C239.836701,84.0656836 236.732169,87.0965147 232.168241,87.0965147 C224.950867,87.0965147 221.34218,73.0589812 221.34218,44.9839142 C221.34218,38.3905273 221.474853,32.5149687 221.740197,27.3572386 C222.005542,22.1995085 222.138214,19.3016086 222.138214,18.6635389 C222.244352,13.5589812 220.705353,9.59763181 217.521218,6.77949062 C214.337082,3.96134942 210.569188,2.55227882 206.217536,2.55227882 C201.972022,2.55227882 198.283732,3.93476318 195.152665,6.6997319 C192.021599,9.46470063 190.402996,13.2931189 190.296859,18.1849866 C190.296859,18.7167113 190.217255,21.029714 190.058048,25.1239946 C189.898842,29.2182752 189.819238,34.1367292 189.819238,39.8793566 C189.819238,49.8757819 190.137652,58.383378 190.774479,65.4021448 C192.260409,81.9919571 196.187509,95.0723861 202.55578,104.643432 C208.924052,114.214477 218.635665,119 231.690621,119 Z" id="YOU"></path>
                <path d="M47.3295345,246.197366 C53.278926,246.197366 59.0158393,245.26469 64.5402743,243.399339 C70.0647093,241.533987 74.5533127,238.8692 78.0060846,235.404975 C81.4588565,231.940751 83.238362,228.023513 83.3446011,223.653261 C83.8757968,213.100702 84.6725903,204.147015 85.7349816,196.792201 C85.9474599,194.873554 86.0536991,193.54116 86.0536991,192.795019 C86.0536991,188.744542 85.0444273,185.680036 83.0258837,183.601501 C81.0073402,181.522967 78.324802,180.057334 74.9782693,179.204602 C71.6317365,178.351869 66.665057,177.499137 60.0782306,176.646405 C58.9096002,176.539814 56.7848175,176.273335 53.7038826,175.846969 L53.7038826,175.846969 L51.7915781,175.687082 C47.9669693,175.687082 44.9922735,177.046123 42.8674908,179.764207 C40.7427081,182.48229 39.6803168,185.813275 39.6803168,189.757161 C39.6803168,194.127413 41.0614255,197.991355 43.823643,201.348988 C46.5858605,204.70662 50.4104694,206.385437 55.2974696,206.385437 L55.2974696,206.385437 L54.3413174,214.539687 C51.8978173,215.499011 49.719915,215.978673 47.8076106,215.978673 C42.9206104,215.978673 39.2288005,213.580364 36.7321808,208.783746 C34.2355611,203.987128 32.9872513,198.018003 32.9872513,190.876372 C32.9872513,185.866571 33.5981263,180.963361 34.8198764,176.166743 C36.0416264,171.370125 37.7414526,167.452887 39.9193548,164.415029 C42.0972571,161.377171 44.5141974,159.858242 47.1701758,159.858242 C50.1448715,159.858242 53.2258065,161.830185 56.4129805,165.774071 C59.7063937,169.717957 63.6372416,171.6899 68.2055244,171.6899 C72.561329,171.6899 76.4390574,170.064379 79.8387097,166.813338 C83.238362,163.562297 84.9381881,159.751651 84.9381881,155.381399 C84.9381881,151.970471 83.610199,148.612838 80.9542206,145.308501 C76.4921769,139.978926 71.445818,135.928448 65.8151439,133.157069 C60.1844698,130.38569 54.3944369,129 48.4450454,129 C40.6895886,129 33.3059687,131.238422 26.2941858,135.715265 C17.9012942,141.044841 11.420707,148.559542 6.85242418,158.25937 C2.28414139,167.959197 0,178.298574 0,189.277499 C0,200.363016 2.33726096,210.595801 7.01178289,219.975854 C11.6863048,229.355907 18.4856094,236.497538 27.4096967,241.400748 C32.9341317,244.598493 39.5740777,246.197366 47.3295345,246.197366 Z M141.55857,247 L142.36044,246.996802 C152.346919,246.996802 160.87261,244.438606 167.937512,239.322213 C175.002415,234.205821 180.340931,227.090838 183.953062,217.977263 C187.565192,208.863689 189.371257,198.391073 189.371257,186.559416 C189.371257,175.687082 187.565192,166.093846 183.953062,157.779708 C180.340931,149.46557 175.002415,142.963488 167.937512,138.273461 C160.87261,133.583435 152.400039,131.238422 142.519799,131.238422 C132.320842,131.238422 123.715472,133.636731 116.703689,138.433349 C109.691907,143.229967 104.433069,149.891936 100.927178,158.419257 C97.4212865,166.946578 95.6683407,176.752997 95.6683407,187.838514 C95.6683407,199.030622 97.3947267,209.10352 100.847499,218.057207 C104.30027,227.010894 109.532548,234.099229 116.544331,239.322213 C123.556114,244.545198 132.161483,247.103394 142.36044,246.996802 L141.55857,247 Z M142.201082,216.298447 C137.420321,216.405039 133.701951,213.740251 131.045973,208.304084 C128.389994,202.867917 127.062005,196.312539 127.062005,188.63795 C127.062005,180.963361 128.416554,174.274744 131.125652,168.572098 C133.83475,162.869452 137.579679,159.964834 142.36044,159.858242 C147.35368,160.071425 151.231408,163.082636 153.993626,168.891873 C156.755843,174.70111 158.136952,181.496319 158.136952,189.277499 C158.136952,196.632313 156.729283,202.974508 153.913946,208.304084 C151.098609,213.633659 147.194321,216.298447 142.201082,216.298447 Z M233.088661,245.557817 C237.444466,245.557817 241.189395,244.172127 244.32345,241.400748 C247.457504,238.629369 249.024532,234.792074 249.024532,229.888865 L249.024532,229.888865 L249.025727,212.005074 C249.040866,196.911983 249.199826,180.808804 249.502608,163.695537 L249.502608,163.695537 L259.382847,163.695537 C264.269847,163.695537 268.094456,162.123312 270.856674,158.978862 C273.618891,155.834413 275,152.077062 275,147.70681 C275,143.336558 273.618891,139.579207 270.856674,136.434758 C268.094456,133.290308 264.216728,131.718084 259.223489,131.718084 L259.223489,131.718084 L206.953834,131.877971 C201.960595,131.984562 198.082867,133.610083 195.320649,136.754532 C192.558432,139.898982 191.177323,143.603037 191.177323,147.866697 C191.177323,152.236949 192.584991,156.020948 195.400328,159.218693 C198.215665,162.416439 202.066834,163.962015 206.953834,163.855424 L206.953834,163.855424 L217.630867,163.855424 C217.31215,181.869389 217.152791,198.817439 217.152791,214.699575 L217.152791,230.048752 C217.25903,234.951962 218.879177,238.762608 222.013232,241.480692 C225.147286,244.198775 228.839096,245.557817 233.088661,245.557817 Z" id="GOT"></path>
                <path d="M38.4391458,369.810811 C42.4340887,369.810811 45.8687652,368.545946 48.7431753,366.016216 C51.6175855,363.486486 53.0547905,359.983784 53.0547905,355.508108 L53.0547905,355.508108 L53.0547905,341.351351 C53.0547905,326.951351 53.200947,311.52973 53.4932599,295.086486 L53.4932599,295.086486 L62.5549597,295.086486 C67.0370907,295.086486 70.5448455,293.651351 73.0782239,290.781081 C75.6116023,287.910811 76.8782915,284.481081 76.8782915,280.491892 C76.8782915,276.502703 75.6116023,273.072973 73.0782239,270.202703 C70.5448455,267.332432 66.9883719,265.897297 62.4088032,265.897297 L62.4088032,265.897297 L14.4694883,266.043243 C9.88991963,266.140541 6.33344607,267.624324 3.80006764,270.494595 C1.26668921,273.364865 0,276.745946 0,280.637838 C0,284.627027 1.29104862,288.081081 3.87314587,291 C6.45524311,293.918919 9.98735727,295.32973 14.4694883,295.232432 L14.4694883,295.232432 L24.2619703,295.232432 C23.9696574,311.675676 23.823501,327.145946 23.823501,341.643243 L23.823501,341.643243 L23.823501,355.654054 C23.9209386,360.12973 25.4068625,363.608108 28.2812726,366.089189 C31.1556828,368.57027 34.5416405,369.810811 38.4391458,369.810811 Z M96.9282988,370.394595 C100.923242,370.394595 104.333559,369.105405 107.15925,366.527027 C109.984941,363.948649 111.397787,360.372973 111.397787,355.8 L111.397787,355.8 L111.251631,332.010811 L128.498092,331.864865 L128.644248,355.216216 C128.644248,359.594595 130.081453,363.048649 132.955863,365.578378 C135.830273,368.108108 139.216231,369.372973 143.113736,369.372973 C147.011242,369.372973 150.421559,368.083784 153.344688,365.505405 C156.267817,362.927027 157.7781,359.351351 157.875538,354.778378 C158.362726,336.097297 158.60632,319.313514 158.60632,304.427027 L158.605182,301.682208 C158.597343,292.443089 158.549004,285.428299 158.460163,280.637838 C158.362726,275.967568 156.852442,272.318919 153.929313,269.691892 C151.006184,267.064865 147.547149,265.751351 143.552206,265.751351 C139.6547,265.751351 136.317461,266.991892 133.540489,269.472973 C130.763516,271.954054 129.326311,275.432432 129.228874,279.908108 L129.228874,279.908108 L128.790404,302.675676 L111.543944,302.821622 L111.982413,281.659459 C112.079851,276.989189 110.691364,273.340541 107.816954,270.713514 C104.942544,268.086486 101.507867,266.772973 97.5129246,266.772973 C93.6154193,266.772973 90.2051022,268.013514 87.2819732,270.494595 C84.3588443,272.975676 82.848561,276.454054 82.7511234,280.92973 C82.2639352,299.902703 82.0203411,316.92973 82.0203411,332.010811 C82.0203411,332.325596 82.0203411,332.638067 82.0203411,332.948223 L82.021479,334.781385 C82.0293178,344.109216 82.0776574,351.212719 82.1664976,356.091892 C82.2639352,360.567568 83.7742185,364.07027 86.6973474,366.6 C89.6204764,369.12973 93.0307935,370.394595 96.9282988,370.394595 Z M181.287143,370.394595 C185.184648,370.394595 188.570606,369.105405 191.445016,366.527027 C194.319426,363.948649 195.756631,360.372973 195.756631,355.8 C195.668052,351.465848 195.619736,345.000804 195.611683,336.404869 L195.610609,334.65727 L195.610609,334.65727 L195.610475,333.762162 C195.610475,319.459459 195.854069,302.091892 196.341257,281.659459 C196.438695,276.989189 195.025849,273.340541 192.10272,270.713514 C189.179591,268.086486 185.720555,266.772973 181.725612,266.772973 C177.73067,266.772973 174.320352,268.013514 171.494661,270.494595 C168.66897,272.975676 167.207405,276.454054 167.109968,280.92973 C166.622779,301.654054 166.379185,319.264865 166.379185,333.762162 C166.379185,334.059777 166.379185,334.355078 166.379185,334.648064 L166.380323,336.378205 C166.388162,345.173763 166.436502,351.744992 166.525342,356.091892 C166.525342,360.567568 167.986906,364.07027 170.910035,366.6 C173.833164,369.12973 177.2922,370.394595 181.287143,370.394595 Z M236.999324,372 C243.137894,372 248.911074,370.978378 254.318863,368.935135 C259.726651,366.891892 264.28186,363.778378 267.984491,359.594595 C271.687121,355.410811 273.928186,350.254054 274.707687,344.124324 C274.902562,342.956757 275,341.302703 275,339.162162 C275,332.351351 272.978169,326.659459 268.934507,322.086486 C264.890846,317.513514 258.581759,312.648649 250.007247,307.491892 L250.007247,307.491892 L246.937962,305.740541 C242.553269,303.113514 239.557061,301.167568 237.94934,299.902703 C236.34162,298.637838 235.537759,297.275676 235.537759,295.816216 C235.537759,295.037838 235.732634,294.308108 236.122385,293.627027 C237.194199,291.583784 238.899357,290.562162 241.237861,290.562162 C242.407112,290.562162 243.600723,290.82973 244.818694,291.364865 C246.036664,291.9 247.132837,292.605405 248.107214,293.481081 C251.225218,296.302703 254.732973,297.713514 258.630478,297.713514 C262.722858,297.713514 266.303691,296.254054 269.372977,293.335135 C272.442262,290.416216 273.976905,287.059459 273.976905,283.264865 C273.976905,279.567568 272.417903,276.308108 269.299899,273.486486 C265.987019,270.372973 262.040795,268.013514 257.461226,266.408108 C252.881658,264.802703 248.107214,264 243.137894,264 C236.804448,264 230.836393,265.289189 225.23373,267.867568 C219.631066,270.445946 215.100216,274.240541 211.64118,279.251351 C208.182144,284.262162 206.452626,290.221622 206.452626,297.12973 C206.452626,302.772973 207.402643,307.491892 209.302677,311.286486 C211.202711,315.081081 213.955324,318.291892 217.560516,320.918919 C221.165708,323.545946 226.03759,326.318919 232.176161,329.237838 C236.950605,331.572973 240.507078,333.591892 242.845581,335.294595 C245.184085,336.997297 246.353336,338.821622 246.353336,340.767568 C246.353336,341.254054 246.20718,341.886486 245.914867,342.664865 C244.940491,345.097297 242.991738,346.313514 240.068609,346.313514 C238.217294,346.313514 236.171104,345.802703 233.930038,344.781081 C231.688973,343.759459 229.594064,342.372973 227.645311,340.621622 C224.234994,337.313514 220.532364,335.659459 216.537421,335.659459 C212.737353,335.659459 209.473193,337.143243 206.744939,340.110811 C204.016685,343.078378 202.652558,346.556757 202.652558,350.545946 C202.652558,353.27027 203.432059,355.921622 204.991062,358.5 C206.550064,361.078378 208.937286,363.389189 212.152727,365.432432 C215.563045,367.572973 219.411831,369.202703 223.699087,370.321622 C227.986343,371.440541 232.419755,372 236.999324,372 Z" id="THIS"></path>
                <path d="M326.640221,287.42449 C337.225734,287.42449 346.421898,283.977839 354.228714,277.084537 C362.03553,270.191236 365.938938,260.779228 365.938938,248.848513 L372,39.7690486 C372,27.30808 368.096592,17.5646631 360.289776,10.5387979 C352.48296,3.51293262 343.154477,0 332.304326,0 C321.454175,0 312.125691,3.44665088 304.318876,10.3399526 C296.51206,17.2332544 292.608652,26.777826 292.608652,38.9736676 L286.54759,247.655441 C286.54759,260.11641 290.517157,269.859827 298.456292,276.885692 C306.395427,283.911557 315.79007,287.42449 326.640221,287.42449 Z M319.535237,372 C326.680458,372 333.825679,370.144111 340.970901,366.432333 C347.057571,363.250809 352.01953,358.279678 355.856778,351.51894 C359.694027,344.758202 361.612651,337.666055 361.612651,330.242499 C361.612651,323.349197 360.157143,317.78153 357.246127,313.539499 C354.070473,308.236959 349.770108,304.12749 344.345033,301.211094 C338.919957,298.294697 333.031766,296.836498 326.680458,296.836498 C319.270599,296.836498 312.257696,298.692387 305.641751,302.404165 C299.025805,306.115943 293.931527,310.623102 290.358916,315.925642 C286.786305,321.228181 285,327.060975 285,333.424023 C285,338.99169 286.323189,344.426793 288.969567,349.729333 C296.114789,364.576444 306.303345,372 319.535237,372 Z" id="!"></path>
            </g>
        </g>
    </g>
</svg>